HIERARCHY
ROOT Hips
{
	OFFSET 0.000000 0.000000 0.000000 
	CHANNELS 6 Xposition Yposition Zposition Zrotation Yrotation Xrotation
	JOINT LeftUpLeg
	{
		OFFSET 1.363060 -1.794630 0.839290 
		CHANNELS 3 Zrotation Yrotation Xrotation
		JOINT LeftLeg
		{
			OFFSET 2.448110 -6.726130 0.000000 
			CHANNELS 3 Zrotation Yrotation Xrotation
			JOINT LeftFoot
			{
				OFFSET 2.562200 -7.039590 0.000000 
				CHANNELS 3 Zrotation Yrotation Xrotation
				JOINT LeftToeBase
				{
					OFFSET 0.157640 -0.433110 2.322550 
					CHANNELS 3 Zrotation Yrotation Xrotation
					End Site
					{
						OFFSET 0.000000 0.000000 0.000000 
					}
				}
			}
		}
	}
	JOINT RightUpLeg
	{
		OFFSET -1.305520 -1.794630 0.839290 
		CHANNELS 3 Zrotation Yrotation Xrotation
		JOINT RightLeg
		{
			OFFSET -2.542530 -6.985550 0.000000 
			CHANNELS 3 Zrotation Yrotation Xrotation
			JOINT RightFoot
			{
				OFFSET -2.568260 -7.056230 0.000000 
				CHANNELS 3 Zrotation Yrotation Xrotation
				JOINT RightToeBase
				{
					OFFSET -0.164730 -0.452590 2.363150 
					CHANNELS 3 Zrotation Yrotation Xrotation
					End Site
					{
						OFFSET 0.000000 0.000000 0.000000 
					}
				}
			}
		}
	}
	JOINT Spine
	{
		OFFSET 0.028270 2.035590 -0.193380 
		CHANNELS 3 Zrotation Yrotation Xrotation
		JOINT Spine1
		{
			OFFSET 0.056720 2.048850 -0.042750 
			CHANNELS 3 Zrotation Yrotation Xrotation
			JOINT Neck1
			{
				OFFSET -0.054170 1.746240 0.172020 
				CHANNELS 3 Zrotation Yrotation Xrotation
				JOINT Head
				{
					OFFSET 0.104070 1.761360 -0.123970 
					CHANNELS 3 Zrotation Yrotation Xrotation
					End Site
					{
						OFFSET 0.000000 0.000000 0.000000 
					}
				}
			}
			JOINT LeftArm
			{
				OFFSET 3.362410 1.200890 -0.311210 
				CHANNELS 3 Zrotation Yrotation Xrotation
				JOINT LeftForeArm
				{
					OFFSET 4.983000 -0.000000 -0.000000 
					CHANNELS 3 Zrotation Yrotation Xrotation
					JOINT LeftHand
					{
						OFFSET 3.483560 -0.000000 -0.000000 
						CHANNELS 3 Zrotation Yrotation Xrotation
						JOINT LeftHandIndex1
						{
							OFFSET 0.715260 -0.000000 -0.000000 
							CHANNELS 3 Zrotation Yrotation Xrotation
							End Site
							{
								OFFSET 0.000000 0.000000 0.000000 
							}
						}
					}
				}
			}
			JOINT RightArm
			{
				OFFSET -3.136600 1.374050 -0.404650 
				CHANNELS 3 Zrotation Yrotation Xrotation
				JOINT RightForeArm
				{
					OFFSET -5.241900 -0.000000 -0.000000 
					CHANNELS 3 Zrotation Yrotation Xrotation
					JOINT RightHand
					{
						OFFSET -3.444170 -0.000000 -0.000000 
						CHANNELS 3 Zrotation Yrotation Xrotation
						JOINT RightHandIndex1
						{
							OFFSET -0.622530 -0.000000 -0.000000 
							CHANNELS 3 Zrotation Yrotation Xrotation
							End Site
							{
								OFFSET 0.000000 0.000000 0.000000 
							}
						}
					}
				}
			}
		}
	}
}
MOTION
Frames: 7
Frame Time: 0.041667
1.472208 17.639681 -5.203835 3.978535 -5.645614 11.941958 -30.375214 -10.956509 -13.343506 0.930352 8.921955 27.282850 -0.341938 4.070229 -8.166141 0.050200 1.445600 3.975800 13.126513 22.602427 -43.734340 -5.760727 -15.871475 45.236767 3.701735 -16.298525 1.384101 -0.551700 4.758200 -13.220200 0.045622 0.211916 -7.392226 0.728269 0.530609 -2.748015 5.075036 -2.071471 20.575071 2.434700 -1.095200 11.559400 -82.367483 -6.444338 38.109987 22.327428 -23.978868 -6.024774 0.268708 -0.036363 -10.604478 -7.125000 0.000000 0.000000 86.242193 -7.643111 29.110169 -24.539020 23.536525 -6.336687 0.668899 -0.650470 1.127169 7.125000 0.000000 0.000000 
1.460497 17.648413 -5.094018 4.075189 -5.303656 12.105710 -30.399674 -10.970459 -12.761189 0.809426 8.685773 26.628885 -0.330641 3.994914 -8.012725 0.038700 1.269100 3.489500 12.698502 22.438688 -43.814791 -5.028968 -15.192913 42.477520 3.747871 -16.548327 2.058851 -0.574800 4.855000 -13.495500 0.202549 0.030289 -7.458302 0.916348 0.437342 -2.735077 5.096569 -1.876325 20.530358 2.472300 -1.009100 11.530100 -82.426135 -6.997436 38.448906 22.487854 -24.153990 -6.116540 0.275153 -0.046980 -10.831841 -7.125000 0.000000 0.000000 86.174823 -7.526313 29.327158 -24.552721 23.580251 -6.376436 0.663477 -0.643535 0.172387 7.125000 0.000000 0.000000 
1.453511 17.653755 -4.974544 4.091934 -4.918042 12.230078 -30.369244 -10.956816 -12.048404 0.689850 8.444295 25.968428 -0.329308 3.953382 -7.848811 0.028800 1.096100 3.013200 12.466821 22.115455 -43.625669 -4.343615 -14.489412 39.787067 3.747757 -16.655758 2.783686 -0.537700 4.698500 -13.050500 0.398172 -0.178906 -8.132318 1.003054 0.326819 -3.114352 5.052561 -1.616677 20.649945 2.486300 -0.904400 11.478100 -82.641086 -6.801231 38.700153 22.726222 -24.460381 -6.256919 0.292784 -0.079607 -10.883520 -7.125000 0.000000 0.000000 86.181670 -7.988293 29.628620 -24.561139 23.596571 -6.388740 0.648757 -0.654932 -0.615288 7.125000 0.000000 0.000000 
1.448375 17.673479 -4.859796 4.115495 -4.724573 12.275414 -30.339666 -10.784812 -11.341301 0.553501 8.156733 25.193378 -0.350179 3.978788 -7.657996 0.020500 0.924200 2.540400 12.152108 21.969701 -43.701755 -3.725231 -13.785156 37.179131 3.759780 -16.935964 3.980977 -0.523400 4.636400 -12.874400 0.355410 -0.313286 -7.580867 0.984798 0.246399 -2.767525 5.077982 -1.684215 20.443436 2.484900 -0.925900 11.466600 -82.528500 -7.610845 38.912718 22.879272 -24.608784 -6.330955 0.306599 -0.087607 -10.843593 -7.125000 0.000000 0.000000 86.139010 -7.615622 29.742501 -24.647542 23.676953 -6.409050 0.657216 -0.645862 -0.964134 7.125000 0.000000 0.000000 
1.436869 17.677279 -4.741966 4.306079 -4.387882 12.308959 -30.441906 -10.652026 -10.604985 0.423713 7.872883 24.433475 -0.328489 3.870313 -7.530879 0.012100 0.710600 1.952900 11.777987 21.631210 -43.554782 -3.163907 -13.081021 34.693573 3.740502 -17.111749 5.074310 -0.531500 4.671800 -12.974700 0.251645 -0.496874 -7.284214 1.096523 0.150946 -2.581520 4.965399 -1.858076 20.327949 2.406600 -1.002000 11.482300 -82.475416 -8.247968 39.133492 23.038585 -24.768798 -6.405668 0.320869 -0.102014 -10.769233 -7.125000 0.000000 0.000000 86.170861 -7.410569 29.776022 -24.750810 23.794519 -6.456490 0.681194 -0.611713 -1.211426 7.125000 0.000000 0.000000 
1.425466 17.685806 -4.600200 4.411691 -3.752158 12.124004 -30.452319 -10.558736 -9.469933 0.298778 7.570074 23.660402 -0.262941 3.613155 -7.432778 0.009000 0.611600 1.680500 11.586787 21.147505 -42.939914 -2.665674 -12.379896 32.350621 3.730670 -17.304918 6.070077 -0.570400 4.837000 -13.444100 0.249024 -0.712860 -7.067064 1.168474 0.039134 -2.490019 4.770716 -1.965055 20.344177 2.299300 -1.058900 11.506200 -82.543844 -8.397795 39.813246 22.821618 -24.509191 -6.355900 0.293497 -0.057484 -9.277673 -7.125000 0.000000 0.000000 86.291219 -7.362857 29.492901 -24.699957 23.737970 -6.434611 0.699527 -0.591809 -1.253156 7.125000 0.000000 0.000000 
1.419816 17.683957 -4.460591 4.328717 -4.104056 12.150924 -30.420999 -10.044657 -8.842419 0.187469 7.311015 22.976025 -0.254260 3.573703 -7.418375 0.021400 0.945000 2.597600 11.422189 21.449037 -42.699797 -2.220452 -11.705817 30.181588 3.601226 -17.136387 7.131159 -0.597200 4.947100 -13.757600 0.300904 -0.499320 -6.982940 1.156379 0.137397 -2.324447 4.697294 -1.871963 20.248476 2.272500 -1.024500 11.425700 -82.645558 -8.592055 40.276508 22.842361 -24.533464 -6.409294 0.281800 -0.043671 -8.928857 -7.125000 0.000000 0.000000 86.396096 -7.377122 29.068211 -24.631651 23.664141 -6.410317 0.711577 -0.580340 -0.744548 7.125000 0.000000 0.000000 
